# xmcd
# Track frame offsets:
# 182
# 12562
# 26242
# 42402
# 52870
# 63795
# 76825
# 87517
# 101245
# 112340
#
# Disc length: 1665 seconds
# Revision: 0
# Processed by: cddbd v1.4PL0 Copyright (c) Steve Scherf et al.
# Submitted via: VisiTrax 2.9.5.180 - For more info visit www.synapsa.com
#
DISCID=83067f0a
DTITLE=Johnny Russell - Greatest HIts
DYEAR=1993
DGENRE=
TTITLE0=Rednecks, white socks and blue ribbon beer
TTITLE1=Catfish John
TTITLE2=Luckenbach, Texas (Back to the basics of love)
TTITLE3=Jambalaya
TTITLE4=Today I started loving you again
TTITLE5=Good hearted woman
TTITLE6=Act naturally
TTITLE7=The baptism of Jesse Talor
TTITLE8=Blue eyes crying in the rain
TTITLE9=Kaw-Liga
EXTD=
EXTT0=
EXTT1=
EXTT2=
EXTT3=
EXTT4=
EXTT5=
EXTT6=
EXTT7=
EXTT8=
EXTT9=
PLAYORDER=
